# xmcd CD database file
#
# Track frame offsets:
#	150
#	12862
#	22612
#	39562
#	50925
#	63337
#	74250
#	92112
#	103162
#	116315
#
# Disc length: 1801 seconds
#
# Revision: 5
# Processed by: cddbd v1.5.1PL0 Copyright (c) Steve Scherf et al.
# Submitted via: CDex 1.50
#
DISCID=7d07070a
DTITLE=Aretha Franklin - Aretha: Lady Soul
DYEAR=1968
DGENRE=Soul
TTITLE0=Chain of Fools
TTITLE1=Money Won't Change You
TTITLE2=People Get Ready
TTITLE3=Niki Hoeki
TTITLE4=(You Make Me Feel Like) A Natural Woman
TTITLE5=Since You've Been Gone (Sweet Sweet Baby)
TTITLE6=Good To Me As I Am To You
TTITLE7=Come Back Baby
TTITLE8=Groovin'
TTITLE9=Ain't No Way
EXTD=YEAR: 1968
EXTT0=
EXTT1=
EXTT2=
EXTT3=
EXTT4=
EXTT5=
EXTT6=
EXTT7=
EXTT8=
EXTT9=
PLAYORDER=
